<svg width="17" height="25" viewBox="0 0 17 25" fill="none" xmlns="http://www.w3.org/2000/svg">
<path fill-rule="evenodd" clip-rule="evenodd" d="M8.255 1.4104C6.62232 1.4104 5.0263 1.89455 3.66877 2.80162C2.31124 3.70869 1.25318 4.99794 0.628378 6.50635C0.0035767 8.01475 -0.1599 9.67456 0.158621 11.2759C0.477142 12.8772 1.26335 14.3481 2.41784 15.5026C3.57232 16.6571 5.04322 17.4433 6.64453 17.7618C8.24585 18.0803 9.90565 17.9168 11.4141 17.292C12.9225 16.6672 14.2117 15.6092 15.1188 14.2516C16.0259 12.8941 16.51 11.2981 16.51 9.6654C16.51 8.58134 16.2965 7.50789 15.8816 6.50635C15.4668 5.50481 14.8587 4.59478 14.0922 3.82823C13.3256 3.06169 12.4156 2.45363 11.4141 2.03877C10.4125 1.62392 9.33907 1.4104 8.255 1.4104ZM8.255 15.4432C7.11227 15.4432 5.99519 15.1043 5.04504 14.4694C4.09489 13.8346 3.35434 12.9322 2.91703 11.8765C2.47973 10.8207 2.36531 9.65899 2.58824 8.53821C2.81118 7.41743 3.36146 6.38793 4.1695 5.57989C4.97753 4.77186 6.00704 4.22158 7.12782 3.99864C8.24859 3.7757 9.41031 3.89012 10.4661 4.32743C11.5218 4.76474 12.4242 5.50529 13.0591 6.45544C13.6939 7.40559 14.0328 8.52267 14.0328 9.6654C14.0328 11.1978 13.4241 12.6674 12.3405 13.7509C11.257 14.8345 9.78737 15.4432 8.255 15.4432Z" fill="#2D2C2B"/>
<path fill-rule="evenodd" clip-rule="evenodd" d="M12.3786 18.6643V24.5215L8.25475 22.8676L4.13086 24.5215V18.6643C5.42434 19.259 6.83113 19.5668 8.25475 19.5668C9.67837 19.5668 11.0852 19.259 12.3786 18.6643Z" fill="#2D2C2B"/>
<path d="M8.25475 13.7895C10.5323 13.7895 12.3786 11.9432 12.3786 9.66564C12.3786 7.38808 10.5323 5.54175 8.25475 5.54175C5.97719 5.54175 4.13086 7.38808 4.13086 9.66564C4.13086 11.9432 5.97719 13.7895 8.25475 13.7895Z" fill="#2D2C2B"/>
</svg>
