<svg width="17" height="24" viewBox="0 0 17 24" fill="none" xmlns="http://www.w3.org/2000/svg">
<path fill-rule="evenodd" clip-rule="evenodd" d="M8.255 0.410156C6.62232 0.410156 5.0263 0.894304 3.66877 1.80137C2.31124 2.70845 1.25318 3.9977 0.628378 5.5061C0.0035767 7.01451 -0.1599 8.67431 0.158621 10.2756C0.477142 11.8769 1.26335 13.3478 2.41784 14.5023C3.57232 15.6568 5.04322 16.443 6.64453 16.7615C8.24585 17.0801 9.90565 16.9166 11.4141 16.2918C12.9225 15.667 14.2117 14.6089 15.1188 13.2514C16.0259 11.8939 16.51 10.2978 16.51 8.66516C16.51 7.5811 16.2965 6.50765 15.8816 5.5061C15.4668 4.50456 14.8587 3.59454 14.0922 2.82799C13.3256 2.06144 12.4156 1.45338 11.4141 1.03853C10.4125 0.623678 9.33907 0.410156 8.255 0.410156ZM8.255 14.4429C7.11227 14.4429 5.99519 14.1041 5.04504 13.4692C4.09489 12.8343 3.35434 11.932 2.91703 10.8762C2.47973 9.82047 2.36531 8.65875 2.58824 7.53797C2.81118 6.41719 3.36146 5.38769 4.1695 4.57965C4.97753 3.77161 6.00704 3.22133 7.12782 2.9984C8.24859 2.77546 9.41031 2.88988 10.4661 3.32719C11.5218 3.76449 12.4242 4.50504 13.0591 5.4552C13.6939 6.40535 14.0328 7.52242 14.0328 8.66516C14.0328 10.1975 13.4241 11.6671 12.3405 12.7507C11.257 13.8342 9.78737 14.4429 8.255 14.4429Z" fill="#2D2C2B"/>
<path fill-rule="evenodd" clip-rule="evenodd" d="M12.3786 17.6641V23.5213L8.25475 21.8674L4.13086 23.5213V17.6641C5.42434 18.2587 6.83113 18.5666 8.25475 18.5666C9.67837 18.5666 11.0852 18.2587 12.3786 17.6641Z" fill="#2D2C2B"/>
<path d="M8.25475 12.7893C10.5323 12.7893 12.3786 10.943 12.3786 8.66539C12.3786 6.38783 10.5323 4.5415 8.25475 4.5415C5.97719 4.5415 4.13086 6.38783 4.13086 8.66539C4.13086 10.943 5.97719 12.7893 8.25475 12.7893Z" fill="#2D2C2B"/>
</svg>
