<svg width="17" height="25" viewBox="0 0 17 25" fill="none" xmlns="http://www.w3.org/2000/svg">
<path fill-rule="evenodd" clip-rule="evenodd" d="M8.255 0.97876C6.62232 0.97876 5.0263 1.46291 3.66877 2.36998C2.31124 3.27705 1.25318 4.5663 0.628378 6.07471C0.0035767 7.58311 -0.1599 9.24292 0.158621 10.8442C0.477142 12.4455 1.26335 13.9164 2.41784 15.0709C3.57232 16.2254 5.04322 17.0116 6.64453 17.3301C8.24585 17.6487 9.90565 17.4852 11.4141 16.8604C12.9225 16.2356 14.2117 15.1775 15.1188 13.82C16.0259 12.4625 16.51 10.8664 16.51 9.23376C16.51 8.1497 16.2965 7.07625 15.8816 6.07471C15.4668 5.07317 14.8587 4.16314 14.0922 3.39659C13.3256 2.63005 12.4156 2.02199 11.4141 1.60713C10.4125 1.19228 9.33907 0.97876 8.255 0.97876ZM8.255 15.0115C7.11227 15.0115 5.99519 14.6727 5.04504 14.0378C4.09489 13.4029 3.35434 12.5006 2.91703 11.4448C2.47973 10.3891 2.36531 9.22735 2.58824 8.10657C2.81118 6.98579 3.36146 5.95629 4.1695 5.14825C4.97753 4.34022 6.00704 3.78994 7.12782 3.567C8.24859 3.34406 9.41031 3.45848 10.4661 3.89579C11.5218 4.3331 12.4242 5.07365 13.0591 6.0238C13.6939 6.97395 14.0328 8.09102 14.0328 9.23376C14.0328 10.7661 13.4241 12.2357 12.3405 13.3193C11.257 14.4028 9.78737 15.0115 8.255 15.0115Z" fill="#2D2C2B"/>
<path fill-rule="evenodd" clip-rule="evenodd" d="M12.3786 18.2327V24.0899L8.25475 22.436L4.13086 24.0899V18.2327C5.42434 18.8273 6.83113 19.1352 8.25475 19.1352C9.67837 19.1352 11.0852 18.8273 12.3786 18.2327Z" fill="#2D2C2B"/>
<path d="M8.25475 13.3579C10.5323 13.3579 12.3786 11.5116 12.3786 9.234C12.3786 6.95644 10.5323 5.11011 8.25475 5.11011C5.97719 5.11011 4.13086 6.95644 4.13086 9.234C4.13086 11.5116 5.97719 13.3579 8.25475 13.3579Z" fill="#2D2C2B"/>
</svg>
