<svg width="17" height="24" viewBox="0 0 17 24" fill="none" xmlns="http://www.w3.org/2000/svg">
<path fill-rule="evenodd" clip-rule="evenodd" d="M8.255 0.547363C6.62232 0.547363 5.0263 1.03151 3.66877 1.93858C2.31124 2.84565 1.25318 4.13491 0.628378 5.64331C0.0035767 7.15172 -0.1599 8.81152 0.158621 10.4128C0.477142 12.0141 1.26335 13.485 2.41784 14.6395C3.57232 15.794 5.04322 16.5802 6.64453 16.8987C8.24585 17.2173 9.90565 17.0538 11.4141 16.429C12.9225 15.8042 14.2117 14.7461 15.1188 13.3886C16.0259 12.0311 16.51 10.435 16.51 8.80236C16.51 7.7183 16.2965 6.64485 15.8816 5.64331C15.4668 4.64177 14.8587 3.73174 14.0922 2.9652C13.3256 2.19865 12.4156 1.59059 11.4141 1.17574C10.4125 0.760885 9.33907 0.547363 8.255 0.547363ZM8.255 14.5801C7.11227 14.5801 5.99519 14.2413 5.04504 13.6064C4.09489 12.9715 3.35434 12.0692 2.91703 11.0134C2.47973 9.95767 2.36531 8.79595 2.58824 7.67517C2.81118 6.5544 3.36146 5.52489 4.1695 4.71686C4.97753 3.90882 6.00704 3.35854 7.12782 3.1356C8.24859 2.91267 9.41031 3.02709 10.4661 3.46439C11.5218 3.9017 12.4242 4.64225 13.0591 5.5924C13.6939 6.54255 14.0328 7.65963 14.0328 8.80236C14.0328 10.3347 13.4241 11.8043 12.3405 12.8879C11.257 13.9714 9.78737 14.5801 8.255 14.5801Z" fill="#2D2C2B"/>
<path fill-rule="evenodd" clip-rule="evenodd" d="M12.3786 17.8013V23.6585L8.25475 22.0046L4.13086 23.6585V17.8013C5.42434 18.3959 6.83113 18.7038 8.25475 18.7038C9.67837 18.7038 11.0852 18.3959 12.3786 17.8013Z" fill="#2D2C2B"/>
<path d="M8.25475 12.9265C10.5323 12.9265 12.3786 11.0802 12.3786 8.8026C12.3786 6.52504 10.5323 4.67871 8.25475 4.67871C5.97719 4.67871 4.13086 6.52504 4.13086 8.8026C4.13086 11.0802 5.97719 12.9265 8.25475 12.9265Z" fill="#2D2C2B"/>
</svg>
