<svg width="1070" height="830" viewBox="0 0 1070 830" fill="none" xmlns="http://www.w3.org/2000/svg">
<g opacity="0.5">
<g filter="url(#filter0_f_74_23)">
<circle cx="600.475" cy="312.865" r="204.865" fill="#E8612A"/>
</g>
<g filter="url(#filter1_f_74_23)">
<path d="M1015.99 697.463C1014.32 764.532 886.566 797.202 797.014 779.399C693.661 758.851 625.84 675.96 618.607 576.803C611.374 477.646 682.306 343.093 781.385 335.865C891.451 315.62 825.033 472.441 883.913 591.581C905.695 635.657 1017.65 630.395 1015.99 697.463Z" fill="#E8612A"/>
</g>
<g filter="url(#filter2_f_74_23)">
<ellipse cx="497.319" cy="575.878" rx="223.121" ry="176.874" transform="rotate(41.6643 497.319 575.878)" fill="#E8612A"/>
</g>
<g filter="url(#filter3_f_74_23)">
<ellipse cx="406.588" cy="633.53" rx="133.436" ry="105.778" transform="rotate(41.6643 406.588 633.53)" fill="#E8612A"/>
</g>
</g>
<defs>
<filter id="filter0_f_74_23" x="152.205" y="-135.405" width="896.54" height="896.54" filterUnits="userSpaceOnUse" color-interpolation-filters="sRGB">
<feFlood flood-opacity="0" result="BackgroundImageFix"/>
<feBlend mode="normal" in="SourceGraphic" in2="BackgroundImageFix" result="shape"/>
<feGaussianBlur stdDeviation="121.702" result="effect1_foregroundBlur_74_23"/>
</filter>
<filter id="filter1_f_74_23" x="374.695" y="90.6824" width="884.715" height="936.923" filterUnits="userSpaceOnUse" color-interpolation-filters="sRGB">
<feFlood flood-opacity="0" result="BackgroundImageFix"/>
<feBlend mode="normal" in="SourceGraphic" in2="BackgroundImageFix" result="shape"/>
<feGaussianBlur stdDeviation="121.702" result="effect1_foregroundBlur_74_23"/>
</filter>
<filter id="filter2_f_74_23" x="49.9172" y="133.829" width="894.805" height="884.099" filterUnits="userSpaceOnUse" color-interpolation-filters="sRGB">
<feFlood flood-opacity="0" result="BackgroundImageFix"/>
<feBlend mode="normal" in="SourceGraphic" in2="BackgroundImageFix" result="shape"/>
<feGaussianBlur stdDeviation="121.702" result="effect1_foregroundBlur_74_23"/>
</filter>
<filter id="filter3_f_74_23" x="0.616913" y="230.759" width="811.942" height="805.541" filterUnits="userSpaceOnUse" color-interpolation-filters="sRGB">
<feFlood flood-opacity="0" result="BackgroundImageFix"/>
<feBlend mode="normal" in="SourceGraphic" in2="BackgroundImageFix" result="shape"/>
<feGaussianBlur stdDeviation="141.986" result="effect1_foregroundBlur_74_23"/>
</filter>
</defs>
</svg>
