<svg width="107" height="20" viewBox="0 0 107 20" fill="none" xmlns="http://www.w3.org/2000/svg">
<g clip-path="url(#clip0_74_86)">
<path d="M20.7874 19.3057H0.89209V0.332691H20.7874V19.3057Z" fill="#00B67A"/>
<path d="M42.3411 19.3057H22.4458V0.332691H42.3411V19.3057Z" fill="#00B67A"/>
<path d="M63.8938 19.3057H43.9985V0.332691H63.8938V19.3057Z" fill="#00B67A"/>
<path d="M85.4475 19.3057H65.5522V0.332691H85.4475V19.3057Z" fill="#00B67A"/>
<path d="M107 19.3057H87.105V0.332691H107V19.3057Z" fill="#00B67A"/>
<path d="M10.8408 6.5187L13.8665 7.24995L15.1307 3.53441L10.8408 6.5187ZM17.8041 11.3212H12.478L10.8408 16.104L9.20357 11.3212H3.87744L8.18808 8.35671L6.55087 3.57394L10.8615 6.53846L13.5142 8.35671L17.8041 11.3212Z" fill="white"/>
<path d="M32.3935 6.5187L35.4193 7.24995L36.6834 3.53441L32.3935 6.5187ZM39.3569 11.3212H34.0307L32.3935 16.104L30.7563 11.3212H25.4302L29.7408 8.35671L28.1036 3.57394L32.4142 6.53846L35.0669 8.35671L39.3569 11.3212Z" fill="white"/>
<path d="M53.9472 6.5187L56.973 7.24995L58.2372 3.53441L53.9472 6.5187ZM60.9106 11.3212H55.5844L53.9472 16.104L52.31 11.3212H46.9839L51.2945 8.35671L49.6573 3.57394L53.968 6.53846L56.6207 8.35671L60.9106 11.3212Z" fill="white"/>
<path d="M75.5 6.5187L78.5257 7.24995L79.7899 3.53441L75.5 6.5187ZM82.4633 11.3212H77.1372L75.5 16.104L73.8628 11.3212H68.5366L72.8473 8.35671L71.21 3.57394L75.5207 6.53846L78.1734 8.35671L82.4633 11.3212Z" fill="white"/>
<path d="M97.0537 6.5187L100.079 7.24995L101.344 3.53441L97.0537 6.5187ZM104.017 11.3212H98.6909L97.0537 16.104L95.4165 11.3212H90.0903L94.401 8.35671L92.7638 3.57394L97.0744 6.53846L99.7271 8.35671L104.017 11.3212Z" fill="white"/>
</g>
<defs>
<clipPath id="clip0_74_86">
<rect width="106.108" height="18.973" fill="white" transform="matrix(1 0 0 -1 0.89209 19.3057)"/>
</clipPath>
</defs>
</svg>
