<svg width="107" height="25" viewBox="0 0 107 25" fill="none" xmlns="http://www.w3.org/2000/svg">
<g clip-path="url(#clip0_74_82)">
<path d="M28.7858 9.02148H39.516V10.9124H35.2849V21.5442H32.9638V10.9124H28.7593L28.7858 9.02148ZM39.0518 12.4778H41.028V14.2309H41.0678C41.1341 13.9805 41.2668 13.7425 41.4392 13.5171C41.6116 13.2792 41.8238 13.0663 42.0891 12.8785C42.3411 12.6781 42.6196 12.5278 42.938 12.4151C43.243 12.3024 43.5614 12.2273 43.8797 12.2273C44.1317 12.2273 44.3041 12.2398 44.397 12.2398C44.4898 12.2523 44.5959 12.2774 44.6755 12.2774V14.1934C44.5296 14.1558 44.3704 14.1433 44.2113 14.1307C44.0521 14.1182 43.9062 14.0932 43.747 14.0932C43.3889 14.0932 43.0573 14.1558 42.739 14.2935C42.4207 14.4313 42.1554 14.6317 41.9034 14.8821C41.6779 15.1451 41.479 15.4707 41.3331 15.8464C41.1872 16.222 41.1209 16.6854 41.1209 17.1863V21.4941H38.9987L39.0518 12.4778ZM54.4109 21.5442H52.3285V20.2794H52.2887C52.0235 20.7427 51.6388 21.0934 51.1216 21.3814C50.6043 21.6694 50.0737 21.7946 49.5432 21.7946C48.2832 21.7946 47.368 21.5066 46.7977 20.9055C46.2273 20.317 45.9488 19.4153 45.9488 18.2382V12.4778H48.071V18.0378C48.071 18.8393 48.2301 19.4028 48.5617 19.7284C48.88 20.0665 49.3442 20.2293 49.9278 20.2293C50.3655 20.2293 50.7369 20.1667 51.042 20.0289C51.347 19.8912 51.5858 19.7284 51.7715 19.5155C51.9704 19.3026 52.0898 19.0271 52.1826 18.7266C52.2755 18.426 52.302 18.0879 52.302 17.7373V12.4778H54.4242V21.5442H54.4109ZM58.0186 18.6389C58.0849 19.2275 58.3236 19.6282 58.7216 19.8787C59.1327 20.1166 59.6235 20.2293 60.1938 20.2293C60.3928 20.2293 60.6182 20.2168 60.8702 20.1792C61.1222 20.1416 61.361 20.0916 61.5732 20.0164C61.7987 19.9288 61.9844 19.8161 62.117 19.6533C62.2629 19.4905 62.3292 19.2901 62.316 19.0397C62.3027 18.7892 62.2099 18.5763 62.0109 18.401C61.812 18.2382 61.5865 18.113 61.3079 18.0003C61.0294 17.9001 60.6846 17.8124 60.3132 17.7498C59.9418 17.6872 59.5704 17.5995 59.1858 17.5119C58.8011 17.4242 58.4032 17.324 58.0318 17.2113C57.6605 17.0986 57.3421 16.9484 57.0371 16.723C56.7586 16.5226 56.5065 16.2721 56.3474 15.9591C56.175 15.646 56.0821 15.2703 56.0821 14.807C56.0821 14.3061 56.2015 13.9053 56.4668 13.5672C56.7188 13.2291 57.0503 12.9661 57.435 12.7658C57.8196 12.5654 58.2706 12.4151 58.7481 12.3275C59.2256 12.2398 59.6898 12.2148 60.1142 12.2148C60.605 12.2148 61.0825 12.2649 61.5334 12.365C61.9711 12.4652 62.3955 12.6155 62.7537 12.8534C63.125 13.0663 63.4301 13.3669 63.6556 13.7175C63.9076 14.0681 64.0402 14.5064 64.1198 15.0073H61.9048C61.7987 14.519 61.5732 14.2059 61.2151 14.0431C60.8437 13.8803 60.4325 13.7926 59.9551 13.7926C59.8092 13.7926 59.6235 13.8052 59.4245 13.8302C59.2123 13.8678 59.0399 13.8928 58.8409 13.968C58.6685 14.0306 58.5093 14.1307 58.3767 14.256C58.2441 14.3812 58.1777 14.544 58.1777 14.7444C58.1777 14.9948 58.2706 15.1827 58.443 15.3329C58.6154 15.4832 58.8542 15.5959 59.146 15.7211C59.4245 15.8213 59.7694 15.909 60.1408 15.9716C60.5121 16.0342 60.8968 16.1219 61.2947 16.2095C61.6926 16.2972 62.0507 16.3974 62.4221 16.5101C62.7934 16.6228 63.125 16.773 63.4168 16.9984C63.6954 17.1988 63.9474 17.4493 64.1198 17.7498C64.2922 18.0504 64.3851 18.4386 64.3851 18.8643C64.3851 19.4028 64.2657 19.8536 64.0004 20.2293C63.7352 20.5925 63.4036 20.9181 62.9924 21.1435C62.5812 21.3814 62.1037 21.5442 61.613 21.6569C61.0957 21.7571 60.605 21.8197 60.1142 21.8197C59.5174 21.8197 58.947 21.7571 58.4298 21.6193C57.9125 21.4816 57.4615 21.2812 57.0901 21.0308C56.7188 20.7678 56.4137 20.4422 56.2015 20.0415C55.9893 19.6533 55.8699 19.1899 55.8434 18.6389H57.9788V18.6514L58.0186 18.6389ZM64.9952 12.4778H66.6001V9.73528H68.7222V12.4527H70.6322V13.9429H68.7222V18.7892C68.7222 19.0021 68.7355 19.1774 68.762 19.3402C68.7753 19.4905 68.8283 19.6282 68.8814 19.7284C68.9477 19.8286 69.0538 19.9162 69.1865 19.9663C69.3324 20.0164 69.5048 20.054 69.7568 20.054C69.9027 20.054 70.0619 20.054 70.1945 20.0415C70.3271 20.0289 70.4995 20.0039 70.6322 19.9789V21.5317C70.4067 21.5692 70.168 21.5818 69.9425 21.5943C69.717 21.6319 69.5048 21.6319 69.2528 21.6319C68.6825 21.6319 68.2448 21.5818 67.9132 21.4816C67.5816 21.3814 67.3163 21.2311 67.1174 21.0433C66.9184 20.8429 66.799 20.605 66.7327 20.3295C66.6664 20.0415 66.6266 19.6908 66.6133 19.3277V13.9805H65.0085V12.4402L64.9952 12.4778ZM72.131 12.4778H74.1338V13.7175H74.1735C74.4786 13.179 74.8765 12.8159 75.4071 12.5779C75.9376 12.34 76.5079 12.2273 77.1446 12.2273C77.9006 12.2273 78.5638 12.34 79.1208 12.6155C79.6912 12.866 80.1421 13.2041 80.5135 13.6549C80.8849 14.0932 81.1634 14.6066 81.3491 15.1952C81.5215 15.7837 81.6276 16.4099 81.6276 17.0611C81.6276 17.6747 81.5348 18.2632 81.3756 18.8268C81.2032 19.3903 80.9512 19.9162 80.6196 20.342C80.288 20.7678 79.8636 21.1309 79.3331 21.3939C78.8025 21.6569 78.2057 21.7946 77.4894 21.7946C77.1844 21.7946 76.866 21.7571 76.5742 21.707C76.2692 21.6569 75.9774 21.5692 75.6856 21.4565C75.4071 21.3438 75.1418 21.1936 74.903 21.0057C74.651 20.8179 74.4653 20.605 74.3062 20.3671H74.2664V24.8878H72.1442V12.4778H72.131ZM79.532 17.0235C79.532 16.6228 79.4789 16.222 79.3596 15.8338C79.2535 15.4456 79.081 15.12 78.8423 14.8195C78.6036 14.519 78.325 14.281 78.0067 14.1057C77.6751 13.9179 77.2772 13.8427 76.8528 13.8427C75.9641 13.8427 75.3009 14.1307 74.8367 14.7068C74.399 15.2954 74.1603 16.0718 74.1603 17.0485C74.1603 17.5119 74.2133 17.9377 74.3327 18.3133C74.4521 18.7015 74.6112 19.0271 74.8633 19.3152C75.0887 19.6032 75.3805 19.8161 75.7121 19.9789C76.0437 20.1417 76.4151 20.2293 76.866 20.2293C77.3568 20.2293 77.7547 20.1291 78.0863 19.9413C78.4179 19.7534 78.6831 19.503 78.9219 19.2275C79.1341 18.9269 79.2933 18.5888 79.3861 18.2132C79.479 17.7999 79.532 17.4242 79.532 17.0235ZM83.2723 9.02148H85.3945V10.9124H83.2723V9.02148ZM83.2723 12.4778H85.3945V21.5442H83.2723V12.4778ZM87.2779 9.02148H89.4001V21.5442H87.2779V9.02148ZM95.8727 21.7946C95.1166 21.7946 94.4269 21.6819 93.8168 21.4315C93.2199 21.181 92.7159 20.868 92.2915 20.4422C91.8803 20.0289 91.562 19.503 91.3498 18.9269C91.1376 18.3384 91.0182 17.6872 91.0182 17.011C91.0182 16.3222 91.1243 15.6961 91.3498 15.1075C91.562 14.519 91.8803 14.018 92.2915 13.5923C92.7027 13.179 93.2067 12.8409 93.8168 12.603C94.4137 12.365 95.1034 12.2398 95.8727 12.2398C96.6419 12.2398 97.3184 12.3525 97.9285 12.603C98.5254 12.8409 99.0294 13.1665 99.4538 13.5923C99.865 14.0055 100.183 14.5315 100.396 15.1075C100.608 15.6961 100.727 16.3222 100.727 17.011C100.727 17.7122 100.621 18.3509 100.396 18.9269C100.17 19.503 99.865 20.0164 99.4538 20.4422C99.0426 20.8554 98.5386 21.1936 97.9285 21.4315C97.3316 21.6569 96.6552 21.7946 95.8727 21.7946ZM95.8727 20.2043C96.3369 20.2043 96.7613 20.1041 97.0929 19.9162C97.451 19.7284 97.7163 19.4779 97.9418 19.1774C98.1672 18.8769 98.3264 18.5262 98.4325 18.1631C98.5386 17.7749 98.5917 17.3992 98.5917 16.9984C98.5917 16.6102 98.5386 16.2346 98.4325 15.8464C98.3264 15.4582 98.1672 15.1326 97.9418 14.832C97.7163 14.5315 97.4245 14.2935 97.0929 14.1182C96.7348 13.9304 96.3369 13.8302 95.8727 13.8302C95.4084 13.8302 94.984 13.9304 94.6524 14.1182C94.2943 14.3061 94.029 14.5565 93.8035 14.832C93.5781 15.1326 93.4189 15.4707 93.3128 15.8464C93.2067 16.2346 93.1536 16.6102 93.1536 16.9984C93.1536 17.3992 93.2067 17.7874 93.3128 18.1631C93.4189 18.5387 93.5781 18.8769 93.8035 19.1774C94.029 19.4779 94.3208 19.7284 94.6524 19.9162C95.0105 20.1291 95.4217 20.2043 95.8727 20.2043ZM101.364 12.4778H102.969V9.73528H105.091V12.4527H107.001V13.9429H105.091V18.7892C105.091 19.0021 105.104 19.1774 105.131 19.3402C105.144 19.4905 105.197 19.6282 105.25 19.7284C105.316 19.8286 105.422 19.9162 105.555 19.9663C105.701 20.0164 105.873 20.054 106.125 20.054C106.271 20.054 106.43 20.054 106.563 20.0415C106.709 20.0289 106.868 20.0039 107.001 19.9789V21.5317C106.775 21.5692 106.537 21.5818 106.311 21.5943C106.086 21.6319 105.873 21.6319 105.621 21.6319C105.051 21.6319 104.613 21.5818 104.282 21.4816C103.95 21.3814 103.685 21.2311 103.486 21.0433C103.287 20.8429 103.168 20.605 103.101 20.3295C103.035 20.0415 102.995 19.6908 102.982 19.3277V13.9805H101.377V12.4402V12.4778H101.364Z" fill="#2D2C2B"/>
<path d="M26.305 9.02147H16.5961L13.6118 0.305664L10.601 9.02147L0.89209 9.00894L8.74409 14.4062L5.73327 23.122L13.5853 17.7247L21.4373 23.122L18.453 14.4062L26.305 9.02147Z" fill="#00B67A"/>
<path d="M19.1294 16.3723L18.453 14.4062L13.6118 17.7248L19.1294 16.3723Z" fill="#005128"/>
</g>
<defs>
<clipPath id="clip0_74_82">
<rect width="106.108" height="24.5946" fill="white" transform="translate(0.89209 0.305664)"/>
</clipPath>
</defs>
</svg>
