<svg width="26" height="24" viewBox="0 0 26 24" fill="none" xmlns="http://www.w3.org/2000/svg">
<path d="M25.8269 9.53026C25.6632 9.05004 25.2142 8.70897 24.683 8.66355L17.4673 8.04202L14.6141 1.70673C14.4037 1.24244 13.9245 0.941895 13.3922 0.941895C12.8598 0.941895 12.3807 1.24244 12.1703 1.70782L9.31704 8.04202L2.10023 8.66355C1.56997 8.71005 1.12212 9.05004 0.95751 9.53026C0.792902 10.0105 0.944921 10.5372 1.34605 10.8692L6.80024 15.4069L5.19192 22.1276C5.07424 22.6217 5.27642 23.1325 5.70864 23.4289C5.94096 23.5881 6.21276 23.6692 6.48685 23.6692C6.72318 23.6692 6.9576 23.6087 7.16798 23.4893L13.3922 19.9604L19.6141 23.4893C20.0694 23.7491 20.6433 23.7254 21.0746 23.4289C21.507 23.1316 21.709 22.6206 21.5913 22.1276L19.983 15.4069L25.4372 10.8701C25.8383 10.5372 25.9915 10.0114 25.8269 9.53026Z" fill="white"/>
</svg>
